<svg xmlns="http://www.w3.org/2000/svg" xmlns:xlink="http://www.w3.org/1999/xlink" preserveAspectRatio="xMidYMid" width="26.219" height="31.875" viewBox="0 0 26.219 31.875">
  <defs>
    <style>
      .cls-1 {
        fill: #fff;
        fill-rule: evenodd;
      }
    </style>
  </defs>
  <path d="M-0.012,14.510 L3.670,14.510 L3.670,0.010 L12.559,0.010 C16.468,0.010 18.585,0.192 19.812,0.510 C23.448,1.465 26.221,4.737 26.221,9.828 C26.221,15.646 22.494,18.691 19.130,19.419 C17.585,19.736 15.786,19.873 12.877,19.873 L9.838,19.873 L9.838,22.601 L24.858,22.601 L24.858,27.964 L9.838,27.964 L9.838,31.873 L3.670,31.873 L3.670,27.964 L-0.012,27.964 L-0.012,22.601 L3.670,22.601 L3.670,19.873 L-0.012,19.873 L-0.012,14.510 ZM9.838,5.419 L9.838,14.464 L12.196,14.464 C14.741,14.464 15.994,14.282 16.858,13.964 C18.494,13.373 19.585,11.783 19.585,9.919 C19.585,7.601 18.040,6.010 15.994,5.646 C15.221,5.510 14.105,5.419 11.786,5.419 L9.838,5.419 Z" class="cls-1"/>
</svg>
